@startuml

skinparam monochrome true
skinparam packageStyle rect
skinparam defaultFontName FG Virgil
skinparam shadowing false

class ListCandidatesUI <<presentation>> {
    doShow()
}
class ListCandidatesController <<application>> {
    listCandidates()
}

class AuthorizationService <<service>> {
    ensureAuthenticatedUserHasAnyOf(Role...)
    session()
}

class UserSession {
    authenticatedUser()
}

class UserManagementService <<service>> {
    allUsers()
}

class PersistenceContext <<persistence>> {
    repositories()
}

class RepositoryFactory <<factory>> {
    users()
}

class UserRepository <<repository>> {
    findAll()
}

ListCandidatesUI --> ListCandidatesController : the controller
ListCandidatesController --> AuthorizationService : authz
ListCandidatesController --> UserManagementService : service
ListCandidatesController --> PersistenceContext : persistence
AuthorizationService --> UserSession : session
UserManagementService --> PersistenceContext : persistence
UserManagementService --> UserRepository : repo
PersistenceContext --> RepositoryFactory : factory
RepositoryFactory --> UserRepository : repo


@enduml