@startuml
skinparam packageStyle rectangle
skinparam shadowing false
skinparam linetype polyline

skinparam classAttributeIconSize 0


class ListJobOpeningsUI <<interface>>

class ListJobOpeningController <<controller>>

class JobOpeningRepository <<repository>>

class JobOpeningManagementService <<service>>


class JobOpening <<root>>


class ContractType <<value object>>

class Mode <<value object>>

class NumberOfVacancies <<value object>>

class Requirements <<entity>>

class Function <<value object>>

class Description <<value object>>

class Address <<root entity>>

class DoorNumber <<value object>>
class Street <<value object>>
class Parish <<value object>>
class County <<value object>>
class District <<value object>>
class ZipCode <<value object>>


class Customer <<value object>>





ListJobOpeningsUI ..> ListJobOpeningController

ListJobOpeningController ..> JobOpeningRepository : accesses >

JobOpeningRepository ..> JobOpening : saves in database >
ListJobOpeningController ..> JobOpeningManagementService : uses >


JobOpening o- JobReference
JobOpening -down-> ContractType
JobOpening -left-> Mode
JobOpening -up-> NumberOfVacancies
JobOpening -up-> Requirements
JobOpening -down-> Function
JobOpening -up-> Description
JobOpening -down-> Address
JobOpening -down-> Customer

Address -down-> DoorNumber
Address -down-> Parish
Address -down-> County
Address -down-> District
Address -down-> Street
Address -down-> ZipCode


@enduml