@startuml
skinparam packageStyle rectangle
skinparam shadowing false
skinparam linetype polyline

skinparam classAttributeIconSize 0


class ListApplicationsUI <<interface>>

class ListApplicationController <<controller>>

class ApplicationRepository <<repository>>

class ApplicationManagementService <<service>>


class Application <<root>>

class ApplicationReference <<Value Object>>
class CurriculumVitae <<Value Object>>

class JobApplicationStatus <<Entity>>

ListApplicationsUI ..> ListApplicationController

ListApplicationController ..> ApplicationRepository : accesses >

ApplicationRepository ..> Application : saves in database >
ListApplicationController ..> ApplicationManagementService : uses >


Application ..> ApplicationReference
Application ..> CurriculumVitae

Application ..> JobApplicationStatus


@enduml